<svg xmlns="http://www.w3.org/2000/svg" viewBox="0 0 100 100">
  <circle cx="50" cy="50" r="45" fill="#e6f2f5" />
  <g transform="translate(20, 35) scale(0.6)">
    <path d="M100 25C85 25 75 0 50 0C25 0 15 25 0 25C0 25 15 40 0 55C15 55 25 80 50 80C75 80 85 55 100 55C100 55 85 40 100 25Z" fill="#b3d9e6"/>
    <circle cx="75" cy="30" r="5" fill="#87bdd1"/>
    <path d="M50 35L60 45L50 55L40 45L50 35Z" fill="#87bdd1"/>
    <path d="M30 40L20 50L30 60" fill="none" stroke="#87bdd1" stroke-width="2"/>
    <path d="M25 42L15 50L25 58" fill="none" stroke="#87bdd1" stroke-width="2"/>
  </g>
</svg>