<svg xmlns="http://www.w3.org/2000/svg" viewBox="0 0 300 200">
  <rect width="300" height="200" fill="#f9e4e8" />
  <g transform="translate(100, 50) scale(0.7)">
    <path d="M80 40C80 62.09 62.09 80 40 80C17.91 80 0 62.09 0 40C0 17.91 17.91 0 40 0C62.09 0 80 17.91 80 40Z" fill="#f4c3c3"/>
    <path d="M65 35C65 50.464 52.464 63 37 63C21.536 63 9 50.464 9 35C9 19.536 21.536 7 37 7C52.464 7 65 19.536 65 35Z" fill="#e8a0a0"/>
    <path d="M55 45C55 51.627 49.627 57 43 57C36.373 57 31 51.627 31 45C31 38.373 36.373 33 43 33C49.627 33 55 38.373 55 45Z" fill="#d11243"/>
  </g>
  <text x="150" y="150" font-family="Arial" font-size="16" font-weight="bold" fill="#333" text-anchor="middle">Chicken Curry Cut</text>
</svg>